<?xml version="1.0" encoding="utf-8"?>
<!-- Svg Vector Icons : http://www.onlinewebfonts.com/icon -->
<!DOCTYPE svg PUBLIC "-//W3C//DTD SVG 1.1//EN" "http://www.w3.org/Graphics/SVG/1.1/DTD/svg11.dtd">
<svg version="1.1" xmlns="http://www.w3.org/2000/svg" xmlns:xlink="http://www.w3.org/1999/xlink" x="0px" y="0px" viewBox="0 0 1000 1000" enable-background="new 0 0 1000 1000" xml:space="preserve">
<metadata> Svg Vector Icons : http://www.onlinewebfonts.com/icon </metadata>
<g><path d="M989.1,891.2c0-16.8,0-37.3,0-62.6c0-241.4-87.2-308.5-145.3-344.3c-58.1-35.8-55.8-76-55.8-76s8.9-62.6-42.5-62.6c-51.4,0-44.7,60.4-44.7,93.9c0,33.5-42.5,31.3-42.5,31.3H494.8c-40.5,0-34.7-38-34.7-38c0-40.2,12.6-76-32.1-76c-40.2,0-46.9,42.5-46.9,78.2s-24.6,69.3-24.6,69.3s-62.6,64.8-100.6,138.6c-38,73.8-40.3,219.1-40.3,219.1l-35.8,4.5c-46.9,0-76-58.1-76-58.1s36.9,28,80.5-15.6c43.6-43.6,4.5-78.2-19.6-78.2c-24,0-40.8,13.4-54.2,26.8c-13.4,13.4-46.9,24.6-46.9-11.2c0-35.7,42.5-17.9,42.5-17.9s82.7-8.9,82.7-64.8c0-55.9-85-35.8-96.1-31.3C81.6,620.7,48,638.6,48,602.9c0-35.7,31.3-51.4,49.2-69.3c17.9-17.9,67.6,0,67.6,0l46.4-2.2l105.1-49.2c0,0,17.9-15.7,15.7-40.2c-2.2-24.6-31.3-20.1-31.3-20.1s-35.8,17.9-154.2,60.4C27.9,524.6,10,578.3,10,607.3c0,29.1,31.3,82.7,31.3,82.7c-38,58.1,29.1,98.4,29.1,98.4c8.9,131.9,152,115.5,152,115.5c11.2,19.3,22.4,50,53.7,56.7s33.5,26.8,33.5,26.8h102.8c0-31.3,47.7-35.7,47.7-35.7h386c0,0,4.5,35.7,44.7,35.7c40.2,0,51.4-32.4,51.4-32.4C1000.3,955,989.1,891.2,989.1,891.2z M599.6,899.6C497.1,899.6,414,816.5,414,714s83.1-185.5,185.6-185.5c102.5,0,185.5,83.1,185.5,185.5S702.1,899.6,599.6,899.6z"/><path d="M487,714c0,62.2,50.4,112.6,112.6,112.6c62.2,0,112.6-50.4,112.6-112.6l0,0c0-62.2-50.4-112.6-112.6-112.6C537.4,601.4,487,651.8,487,714z"/><path d="M81.5,397.1c0-42.5,11.2-125.2,156.5-185.5C383.3,151.2,613.6,37.2,613.6,37.2s42.5-24.6,138.6-24.6c96.1,0,149.8,47,187.8,85c0,0,22.3,42.5,0,55.9c-22.4,13.4-143.1,51.4-143.1,51.4s-26.8,17.9-44.7-8.9c-17.9-26.8-33.5-44.7-77.1-30.2C631.5,180.3,356.5,291,356.5,291s-48.1,19-48.1,63.7c0,44.7-23.5,53.6-23.5,53.6l-120.2,50.8C164.8,459.1,81.5,502.2,81.5,397.1z"/><path d="M796.9,221.7l139.7-55.9c0,0,38-11.2,29,32.4L837.1,253C837.1,253,770.1,269.7,796.9,221.7z"/></g>
</svg>